HIERARCHY
ROOT root
{
	OFFSET	0	13.1	24.9
	CHANNELS 6  Xposition Yposition Zposition Xrotation Yrotation Zrotation
	JOINT spine_1
	{
		OFFSET	0	9.99999	0
		CHANNELS 3  Xrotation Yrotation Zrotation
		JOINT spine_2
		{
			OFFSET	0	112	-10
			CHANNELS 3  Xrotation Yrotation Zrotation
			JOINT spine_3
			{
				OFFSET	0	206.5	19.3
				CHANNELS 3  Xrotation Yrotation Zrotation
				JOINT spine_4
				{
					OFFSET	0	110.4	14.6
					CHANNELS 3  Xrotation Yrotation Zrotation
					JOINT neck_1
					{
						OFFSET	0	71.8	-50.3
						CHANNELS 3  Xrotation Yrotation Zrotation
						JOINT neck_2
						{
							OFFSET	0	86.2	-25.8
							CHANNELS 3  Xrotation Yrotation Zrotation
							JOINT head_ee
							{
								OFFSET	0	179.8	-8.7
								CHANNELS 3  Xrotation Yrotation Zrotation
								End Site
								{
									OFFSET	1	0	0
								}
							}
						}
					}
					JOINT left_clavicle
					{
						OFFSET	-43.2	22.4	-70.8
						CHANNELS 3  Xrotation Yrotation Zrotation
						JOINT left_shoulder
						{
							OFFSET	-93.9	-5.79999	48.7
							CHANNELS 3  Xrotation Yrotation Zrotation
							JOINT left_elbow
							{
								OFFSET	-291.4	-30.8	15.2
								CHANNELS 3  Xrotation Yrotation Zrotation
								JOINT left_lowarm_twist
								{
									OFFSET	-110.7	-3.89999	13.6
									CHANNELS 3  Xrotation Yrotation Zrotation
									JOINT left_hand
									{
										OFFSET	-110.7	-3.89999	13.6
										CHANNELS 3  Xrotation Yrotation Zrotation
										JOINT left_ee
										{
											OFFSET	-80.8	-5.10001	12.1
											CHANNELS 3  Xrotation Yrotation Zrotation
											End Site
											{
												OFFSET	1	0	0
											}
										}
									}
								}
							}
						}
					}
					JOINT right_clavicle
					{
						OFFSET	43.2	22.4	-70.8
						CHANNELS 3  Xrotation Yrotation Zrotation
						JOINT right_shoulder
						{
							OFFSET	93.9	-5.79999	48.7
							CHANNELS 3  Xrotation Yrotation Zrotation
							JOINT right_elbow
							{
								OFFSET	291.4	-30.8	15.2
								CHANNELS 3  Xrotation Yrotation Zrotation
								JOINT right_lowarm_twist
								{
									OFFSET	110.7	-3.89999	13.6
									CHANNELS 3  Xrotation Yrotation Zrotation
									JOINT right_hand
									{
										OFFSET	110.7	-3.89999	13.6
										CHANNELS 3  Xrotation Yrotation Zrotation
										JOINT right_ee
										{
											OFFSET	80.8	-5.10001	12.1
											CHANNELS 3  Xrotation Yrotation Zrotation
											End Site
											{
												OFFSET	1	0	0
											}
										}
									}
								}
							}
						}
					}
				}
			}
		}
	}
	JOINT left_hip
	{
		OFFSET	-82.8	-127.5	0.300001
		CHANNELS 3  Xrotation Yrotation Zrotation
		JOINT left_knee
		{
			OFFSET	-28.2	-396.7	2.2
			CHANNELS 3  Xrotation Yrotation Zrotation
			JOINT left_ankle
			{
				OFFSET	-11.7	-411.3	35.4
				CHANNELS 3  Xrotation Yrotation Zrotation
				JOINT left_toes
				{
					OFFSET	0	-60	-88.6
					CHANNELS 3  Xrotation Yrotation Zrotation
					JOINT left_foot_ee
					{
						OFFSET	-22.5	-16.5	-42.2
						CHANNELS 3  Xrotation Yrotation Zrotation
						End Site
						{
							OFFSET	1	0	0
						}
					}
				}
			}
		}
	}
	JOINT right_hip
	{
		OFFSET	82.8	-127.5	0.300001
		CHANNELS 3  Xrotation Yrotation Zrotation
		JOINT right_knee
		{
			OFFSET	28.2	-396.7	2.2
			CHANNELS 3  Xrotation Yrotation Zrotation
			JOINT right_ankle
			{
				OFFSET	11.7	-411.3	35.4
				CHANNELS 3  Xrotation Yrotation Zrotation
				JOINT right_toes
				{
					OFFSET	0	-60	-88.6
					CHANNELS 3  Xrotation Yrotation Zrotation
					JOINT right_foot_ee
					{
						OFFSET	22.5	-16.5	-42.2
						CHANNELS 3  Xrotation Yrotation Zrotation
						End Site
						{
							OFFSET	1	0	0
						}
					}
				}
			}
		}
	}
}
MOTION
Frames: 10
Frame Time: 0.02
2537.6106889 762.905 -1526.23615304 40.3045150847 72.5082548328 -42.4764483891 -3.75408 -0.0573328 -0.147033 -3.75407 -0.0478605 -0.150383 -3.75392 -0.0048675 -0.157741 -3.75396 -0.0297186 -0.154992 -15.9772 4.07738 2.16864 -16.0048 6.56349 3.45673 -0.0 0.0 -0.0 -1.01624 8.09932 -0.835695 -4.20049 0.971865 81.1284 0.366379 -10.287 0.032979 -2.93531 -0.112627 0.357842 -1.99174 18.2488 -4.63177 -0.0 0.0 -0.0 2.60706 15.7649 -3.68925 11.7091 24.3943 -69.9101 2.08361 45.9011 -0.882396 54.9521 1.34569 6.62326 0.870564 -4.93545 -7.80815 0.0 0.0 0.0 -6.5269 31.8804 -9.76444 -20.4111 0.290525 3.10223 18.7088 13.3707 -2.58414 -3.9806 0.0 0.0 -0.0 0.0 -0.0 5.54392 31.2649 -10.0451 -17.3032 -0.317994 -2.62622 22.5853 -13.5906 3.06686 -5.53716 0.0 0.0 0.0 0.0 0.0 
2535.4625441 762.905 -1513.97875166 46.4564669589 74.4413758107 -48.8920026651 -3.75408 -0.0573328 -0.147033 -3.75407 -0.0478605 -0.150383 -3.75392 -0.0048675 -0.157741 -3.75396 -0.0297186 -0.154992 -15.9772 4.07738 2.16864 -16.0048 6.56349 3.45673 -0.0 0.0 -0.0 -1.01624 8.09932 -0.835695 -4.20049 0.971865 81.1284 0.366379 -10.287 0.032979 -2.93531 -0.112627 0.357842 -1.99174 18.2488 -4.63177 -0.0 0.0 -0.0 2.60706 15.7649 -3.68925 11.7091 24.3943 -69.9101 2.08361 45.9011 -0.882396 54.9521 1.34569 6.62326 0.870564 -4.93545 -7.80815 0.0 0.0 0.0 -6.5269 31.8804 -9.76444 -20.4111 0.290525 3.10223 18.7088 13.3707 -2.58414 -3.9806 0.0 0.0 -0.0 0.0 -0.0 5.54392 31.2649 -10.0451 -17.3032 -0.317994 -2.62622 22.5853 -13.5906 3.06686 -5.53716 0.0 0.0 0.0 0.0 0.0 
2524.36957617 766.192 -1514.28471687 53.4498630352 75.8985148292 -56.0292523297 -3.88763 -0.0681416 -0.353538 -3.88756 -0.0455071 -0.357157 -3.88716 0.0548253 -0.355846 -3.88734 -0.00206163 -0.360039 -15.7906 4.23128 0.942586 -15.8419 7.55985 2.34747 -0.0 0.0 -0.0 -0.815751 10.1889 -0.196502 -3.79766 1.16057 80.2457 0.389099 -10.9101 0.0371579 -2.24919 -0.084659 0.274714 -2.14635 21.9104 -3.74748 -0.0 0.0 -0.0 2.77505 14.0513 -4.2043 11.8241 22.0965 -70.1512 2.14087 46.6766 -0.923788 54.3703 1.29914 6.56506 1.08493 -4.01517 -8.87239 0.0 0.0 0.0 -4.55078 32.4409 -9.85325 -10.8675 0.292691 1.63962 15.0826 17.3625 -2.13477 -4.90665 0.0 0.0 -0.0 0.0 -0.0 4.78496 31.9272 -10.4267 -17.0623 -0.319044 -2.58927 23.7982 -15.295 3.22569 -6.11134 0.0 0.0 0.0 0.0 0.0 
2512.53920395 766.3 -1511.23968263 60.8794248789 77.3129092277 -62.9927389666 -3.87964 -0.186125 -0.463462 -3.87954 -0.156257 -0.474366 -3.87801 -0.0193599 -0.499063 -3.87835 -0.0979337 -0.489743 -15.5806 3.85217 0.583135 -15.6252 7.03651 1.86459 -0.0 0.0 -0.0 -0.564357 10.6606 0.297537 -2.88437 1.5084 79.618 0.402781 -11.284 0.0397913 -1.6842 -0.0623779 0.206017 -2.24437 23.4634 -3.53849 -0.0 0.0 -0.0 3.34262 13.1243 -5.48266 10.5034 20.4937 -69.4022 2.06841 45.6915 -0.871501 54.732 1.32801 6.6013 1.17495 -3.83439 -9.40326 0.0 0.0 0.0 -3.3754 32.4651 -10.7079 -4.54086 0.160145 0.678302 14.0662 18.7717 -2.00758 -4.93499 0.0 0.0 -0.0 0.0 -0.0 4.75366 32.5085 -11.2318 -16.9887 -0.319334 -2.57799 24.7804 -14.3451 3.33491 -6.52748 0.0 0.0 0.0 0.0 0.0 
2497.45121619 755.809 -1540.40618917 38.4603906647 73.959775591 -38.3573204722 -3.58885 -0.0244473 -0.962056 -3.58834 0.0368175 -0.961662 -3.58832 0.296033 -0.915708 -3.58946 0.147705 -0.950965 -13.9362 4.10716 0.00771348 -13.9817 7.82866 1.29637 -0.0 0.0 -0.0 -0.0642182 11.5916 1.26214 -0.62168 2.00763 77.8926 0.773021 -20.9534 0.142948 -1.26916 -0.0464433 0.155418 -2.41574 25.513 -3.46898 -0.0 0.0 -0.0 3.21022 14.7689 -5.06044 3.93977 19.4164 -68.14 1.85483 42.5734 -0.722726 54.5399 1.31265 6.58207 1.40184 -1.64595 -10.0651 0.0 0.0 0.0 -1.70148 31.7912 -10.3416 0.200328 -0.00830084 -0.0296212 11.0489 17.0007 -1.585 -4.73473 0.0 0.0 -0.0 0.0 -0.0 6.00511 32.6094 -13.1084 -17.4348 -0.317354 -2.6464 27.7534 -13.0164 3.66767 -8.61213 0.0 0.0 0.0 0.0 0.0 
2497.11075686 755.809 -1538.83623252 39.1107353899 74.1906864293 -39.0336177118 -3.58885 -0.0244473 -0.962056 -3.58834 0.0368175 -0.961662 -3.58832 0.296033 -0.915708 -3.58946 0.147705 -0.950965 -13.9362 4.10716 0.00771348 -13.9817 7.82866 1.29637 -0.0 0.0 -0.0 -0.0642182 11.5916 1.26214 -0.62168 2.00763 77.8926 0.773021 -20.9534 0.142948 -1.26916 -0.0464433 0.155418 -2.41574 25.513 -3.46898 -0.0 0.0 -0.0 3.21022 14.7689 -5.06044 3.93977 19.4164 -68.14 1.85483 42.5734 -0.722726 54.5399 1.31265 6.58207 1.40184 -1.64595 -10.0651 0.0 0.0 0.0 -1.70148 31.7912 -10.3416 0.200328 -0.00830084 -0.0296212 11.0489 17.0007 -1.585 -4.73473 0.0 0.0 -0.0 0.0 -0.0 6.00511 32.6094 -13.1084 -17.4348 -0.317354 -2.6464 27.7534 -13.0164 3.66767 -8.61213 0.0 0.0 0.0 0.0 0.0 
2496.86287648 755.809 -1537.66778211 39.6068621199 74.3609869958 -39.5490317075 -3.58885 -0.0244473 -0.962056 -3.58834 0.0368175 -0.961662 -3.58832 0.296033 -0.915708 -3.58946 0.147705 -0.950965 -13.9362 4.10716 0.00771348 -13.9817 7.82866 1.29637 -0.0 0.0 -0.0 -0.0642182 11.5916 1.26214 -0.62168 2.00763 77.8926 0.773021 -20.9534 0.142948 -1.26916 -0.0464433 0.155418 -2.41574 25.513 -3.46898 -0.0 0.0 -0.0 3.21022 14.7689 -5.06044 3.93977 19.4164 -68.14 1.85483 42.5734 -0.722726 54.5399 1.31265 6.58207 1.40184 -1.64595 -10.0651 0.0 0.0 0.0 -1.70148 31.7912 -10.3416 0.200328 -0.00830084 -0.0296212 11.0489 17.0007 -1.585 -4.73473 0.0 0.0 -0.0 0.0 -0.0 6.00511 32.6094 -13.1084 -17.4348 -0.317354 -2.6464 27.7534 -13.0164 3.66767 -8.61213 0.0 0.0 0.0 0.0 0.0 
2495.8101496 755.809 -1532.43513445 41.9626490184 75.10638404 -41.9909121902 -3.58885 -0.0244473 -0.962056 -3.58834 0.0368175 -0.961662 -3.58832 0.296033 -0.915708 -3.58946 0.147705 -0.950965 -13.9362 4.10716 0.00771348 -13.9817 7.82866 1.29637 -0.0 0.0 -0.0 -0.0642182 11.5916 1.26214 -0.62168 2.00763 77.8926 0.773021 -20.9534 0.142948 -1.26916 -0.0464433 0.155418 -2.41574 25.513 -3.46898 -0.0 0.0 -0.0 3.21022 14.7689 -5.06044 3.93977 19.4164 -68.14 1.85483 42.5734 -0.722726 54.5399 1.31265 6.58207 1.40184 -1.64595 -10.0651 0.0 0.0 0.0 -1.70148 31.7912 -10.3416 0.200328 -0.00830084 -0.0296212 11.0489 17.0007 -1.585 -4.73473 0.0 0.0 -0.0 0.0 -0.0 6.00511 32.6094 -13.1084 -17.4348 -0.317354 -2.6464 27.7534 -13.0164 3.66767 -8.61213 0.0 0.0 0.0 0.0 0.0 
2495.38636737 755.809 -1530.18632025 43.0465028102 75.4174893959 -43.1116326185 -3.58885 -0.0244473 -0.962056 -3.58834 0.0368175 -0.961662 -3.58832 0.296033 -0.915708 -3.58946 0.147705 -0.950965 -13.9362 4.10716 0.00771348 -13.9817 7.82866 1.29637 -0.0 0.0 -0.0 -0.0642182 11.5916 1.26214 -0.62168 2.00763 77.8926 0.773021 -20.9534 0.142948 -1.26916 -0.0464433 0.155418 -2.41574 25.513 -3.46898 -0.0 0.0 -0.0 3.21022 14.7689 -5.06044 3.93977 19.4164 -68.14 1.85483 42.5734 -0.722726 54.5399 1.31265 6.58207 1.40184 -1.64595 -10.0651 0.0 0.0 0.0 -1.70148 31.7912 -10.3416 0.200328 -0.00830084 -0.0296212 11.0489 17.0007 -1.585 -4.73473 0.0 0.0 -0.0 0.0 -0.0 6.00511 32.6094 -13.1084 -17.4348 -0.317354 -2.6464 27.7534 -13.0164 3.66767 -8.61213 0.0 0.0 0.0 0.0 0.0 
2494.60093289 757.356 -1539.25832217 35.2380270341 73.6511787775 -35.3367704802 -3.49639 -0.149277 -0.934808 -3.49591 -0.0894927 -0.942411 -3.49372 0.167677 -0.931683 -3.49493 0.0184376 -0.946471 -13.4008 4.09542 -0.0952805 -13.4429 7.85835 1.15781 -0.0 0.0 -0.0 0.251967 11.1512 1.74636 0.318404 1.98484 77.9906 0.74151 -20.1694 0.13188 -1.65586 -0.0612783 0.202567 -2.55768 25.6082 -4.21534 -0.0 0.0 -0.0 3.08036 15.3093 -4.73668 2.84253 19.2896 -68.0907 1.80016 41.7209 -0.686039 54.3286 1.29583 6.56086 1.32206 -2.10875 -9.71033 0.0 0.0 0.0 -1.4963 31.6777 -9.7028 0.260868 -0.0108298 -0.0385674 10.2699 16.774 -1.47617 -4.66627 0.0 0.0 -0.0 0.0 -0.0 6.02487 32.0491 -12.0621 -17.4038 -0.317509 -2.64165 27.3429 -12.8782 3.62032 -8.72437 0.0 0.0 0.0 0.0 0.0 
